<mxfile host="app.diagrams.net" agent="Mozilla/5.0 (Windows NT 10.0; Win64; x64) AppleWebKit/537.36 (KHTML, like Gecko) Chrome/131.0.0.0 Safari/537.36" version="25.0.3">
  <diagram name="Page-1" id="LTPABZYKOmEheMya2CER">
    <mxGraphModel dx="1400" dy="743" grid="0" gridSize="10" guides="1" tooltips="1" connect="1" arrows="1" fold="1" page="1" pageScale="1" pageWidth="1100" pageHeight="850" background="#000000" math="0" shadow="0">
      <root>
        <mxCell id="0" />
        <mxCell id="1" parent="0" />
        <mxCell id="Ma0hSV49_SuWITX-u6Jb-2" value="" style="ellipse;whiteSpace=wrap;html=1;aspect=fixed;fillColor=none;strokeColor=#FFFFFF;strokeWidth=2;" vertex="1" parent="1">
          <mxGeometry x="460" y="335" width="180" height="180" as="geometry" />
        </mxCell>
        <mxCell id="Ma0hSV49_SuWITX-u6Jb-3" value="&lt;font color=&quot;#ffffff&quot;&gt;0&lt;/font&gt;&lt;div&gt;&lt;font color=&quot;#ffffff&quot;&gt;Ticketing&lt;/font&gt;&lt;/div&gt;&lt;div&gt;&lt;font color=&quot;#ffffff&quot;&gt;System&lt;/font&gt;&lt;/div&gt;" style="text;strokeColor=none;align=center;fillColor=none;html=1;verticalAlign=middle;whiteSpace=wrap;rounded=0;fontSize=30;" vertex="1" parent="1">
          <mxGeometry x="505" y="403" width="90" height="45" as="geometry" />
        </mxCell>
        <mxCell id="Ma0hSV49_SuWITX-u6Jb-4" value="" style="rounded=0;whiteSpace=wrap;html=1;fillColor=none;strokeColor=#FFFFFF;" vertex="1" parent="1">
          <mxGeometry x="200" y="260" width="120" height="60" as="geometry" />
        </mxCell>
        <mxCell id="Ma0hSV49_SuWITX-u6Jb-5" value="Customer" style="text;strokeColor=#FFFFFF;align=center;fillColor=none;html=1;verticalAlign=middle;whiteSpace=wrap;rounded=0;fontColor=#FFFFFF;fontSize=20;strokeWidth=2;" vertex="1" parent="1">
          <mxGeometry x="200" y="260" width="120" height="60" as="geometry" />
        </mxCell>
        <mxCell id="Ma0hSV49_SuWITX-u6Jb-6" value="" style="rounded=0;whiteSpace=wrap;html=1;fillColor=none;strokeColor=#FFFFFF;" vertex="1" parent="1">
          <mxGeometry x="800" y="260" width="120" height="60" as="geometry" />
        </mxCell>
        <mxCell id="Ma0hSV49_SuWITX-u6Jb-7" value="Customer" style="text;strokeColor=#FFFFFF;align=center;fillColor=none;html=1;verticalAlign=middle;whiteSpace=wrap;rounded=0;fontColor=#FFFFFF;fontSize=20;strokeWidth=2;" vertex="1" parent="1">
          <mxGeometry x="800" y="260" width="120" height="60" as="geometry" />
        </mxCell>
        <mxCell id="Ma0hSV49_SuWITX-u6Jb-12" value="" style="endArrow=none;html=1;rounded=0;fontColor=#FFFFFF;strokeColor=#FFFFFF;strokeWidth=2;" edge="1" parent="1">
          <mxGeometry width="50" height="50" relative="1" as="geometry">
            <mxPoint x="820" y="250" as="sourcePoint" />
            <mxPoint x="790" y="290" as="targetPoint" />
          </mxGeometry>
        </mxCell>
        <mxCell id="Ma0hSV49_SuWITX-u6Jb-17" value="" style="endArrow=classic;html=1;rounded=0;strokeColor=#FFFFFF;strokeWidth=2;curved=1;" edge="1" parent="1">
          <mxGeometry width="50" height="50" relative="1" as="geometry">
            <mxPoint x="320" y="278" as="sourcePoint" />
            <mxPoint x="513" y="344" as="targetPoint" />
            <Array as="points">
              <mxPoint x="436" y="270" />
            </Array>
          </mxGeometry>
        </mxCell>
        <mxCell id="Ma0hSV49_SuWITX-u6Jb-18" value="" style="endArrow=classic;html=1;rounded=0;curved=1;strokeColor=#FFFFFF;strokeWidth=2;entryX=0;entryY=0.25;entryDx=0;entryDy=0;" edge="1" parent="1" target="Ma0hSV49_SuWITX-u6Jb-7">
          <mxGeometry width="50" height="50" relative="1" as="geometry">
            <mxPoint x="610" y="357" as="sourcePoint" />
            <mxPoint x="804" y="276" as="targetPoint" />
            <Array as="points">
              <mxPoint x="681" y="257" />
            </Array>
          </mxGeometry>
        </mxCell>
      </root>
    </mxGraphModel>
  </diagram>
</mxfile>
